<?xml version="1.0" encoding="UTF-8" standalone="no"?>
<svg
   width="24"
   height="24"
   viewBox="0 0 24 24"
   fill="none"
   stroke="currentColor"
   stroke-width="2"
   stroke-linecap="round"
   stroke-linejoin="round"
   class="lucide lucide-cable-icon lucide-cable"
   version="1.1"
   id="svg7"
   sodipodi:docname="favicon1.svg"
   inkscape:version="1.4.3 (0d15f75042, 2025-12-25)"
   xmlns:inkscape="http://www.inkscape.org/namespaces/inkscape"
   xmlns:sodipodi="http://sodipodi.sourceforge.net/DTD/sodipodi-0.dtd"
   xmlns="http://www.w3.org/2000/svg"
   xmlns:svg="http://www.w3.org/2000/svg">
  <defs
     id="defs7" />
  <sodipodi:namedview
     id="namedview7"
     pagecolor="#ffffff"
     bordercolor="#000000"
     borderopacity="0.25"
     inkscape:showpageshadow="2"
     inkscape:pageopacity="0.0"
     inkscape:pagecheckerboard="0"
     inkscape:deskcolor="#d1d1d1"
     inkscape:zoom="49.875"
     inkscape:cx="12"
     inkscape:cy="12"
     inkscape:window-width="2560"
     inkscape:window-height="1410"
     inkscape:window-x="0"
     inkscape:window-y="0"
     inkscape:window-maximized="1"
     inkscape:current-layer="svg7" />
  <path
     d="M17 19a1 1 0 0 1-1-1v-2a2 2 0 0 1 2-2h2a2 2 0 0 1 2 2v2a1 1 0 0 1-1 1z"
     id="path1"
     style="fill:none;stroke:#55ff50;stroke-opacity:1" />
  <path
     d="M17 21v-2"
     id="path2"
     style="fill:none;stroke:#55ff50;stroke-opacity:1" />
  <path
     d="M19 14V6.5a1 1 0 0 0-7 0v11a1 1 0 0 1-7 0V10"
     id="path3"
     style="fill:none;stroke:#55ff50;stroke-opacity:1" />
  <path
     d="M21 21v-2"
     id="path4"
     style="fill:none;stroke:#55ff50;stroke-opacity:1" />
  <path
     d="M3 5V3"
     id="path5"
     style="fill:none;stroke:#55ff50;stroke-opacity:1" />
  <path
     d="M4 10a2 2 0 0 1-2-2V6a1 1 0 0 1 1-1h4a1 1 0 0 1 1 1v2a2 2 0 0 1-2 2z"
     id="path6"
     style="fill:none;stroke:#55ff50;stroke-opacity:1" />
  <path
     d="M7 5V3"
     id="path7"
     style="fill:none;stroke:#55ff50;stroke-opacity:1" />
</svg>
